<svg xmlns="http://www.w3.org/2000/svg" viewBox="0 0 32 32">
  <defs>
    <clipPath id="c"><circle cx="16" cy="16" r="16"/></clipPath>
  </defs>
  <g clip-path="url(#c)">
    <rect width="32" height="32" fill="#012169"/>
    <path fill="#fff" d="M0 0 32 0 0 32H0V0zm4 0 24 0 0 24H4V0z"/>
    <path fill="#C8102E" d="M0 0h14v9H0V0zm18 0h14v9H18V0zM0 23h14v9H0v-9zm18 0h14v9H18v-9z"/>
    <path stroke="#fff" stroke-width="5" d="M0 0 32 20M0 12 32 0M32 12 0 32 20"/>
    <path stroke="#C8102E" stroke-width="3" d="M0 0 32 20M0 12 32 0M32 12 0 32 20"/>
  </g>
</svg>
